<?xml version="1.0" encoding="UTF-8"?>
<!-- Generated by Pixelmator Pro 3.4.1 -->
<svg width="200" height="172" viewBox="0 0 200 172" xmlns="http://www.w3.org/2000/svg">
    <path id="path1" fill-rule="evenodd" stroke="none" d="M 130.5 171.171753 C 96.400002 171.35228 54.775002 171.408081 38 171.295731 C 10.875164 171.114059 7.112686 170.892731 4 169.295731 C 2.008276 168.273849 0.37321 166.613693 0.20578 165.443298 C 0.043958 164.312119 1.661889 159.101257 3.801181 153.863617 C 5.940473 148.625977 11.618459 135.601501 16.418928 124.920319 C 21.219397 114.239143 26.966618 102.285744 29.190527 98.357208 C 31.500443 94.276741 34.275837 90.739723 35.664055 90.107208 C 37.000584 89.498245 41.193638 89 44.981953 89 C 48.770267 89 52.967121 89.417198 54.308296 89.927116 C 55.649467 90.437027 57.74987 92.477249 58.975861 94.460938 C 60.201847 96.444633 61.448349 98.998489 61.745865 100.136185 C 62.058853 101.333054 61.699631 102.576523 60.893398 103.087044 C 60.127029 103.572327 56.012501 103.976265 51.75 103.984688 C 45.64806 103.996742 43.619034 104.380966 42.208508 105.791489 C 41.223186 106.77681 37.785622 113.414314 34.569469 120.541489 C 31.353319 127.668671 26.723999 138.167007 24.282089 143.871124 C 20.984467 151.574127 20.132648 154.532669 20.971033 155.371124 C 21.79014 156.190308 43.471008 156.5 99.999802 156.5 C 157.857101 156.5 178.198898 156.200912 179.062347 155.337555 C 179.945724 154.454254 178.963699 151.212463 174.972809 141.837555 C 172.084152 135.051895 167.313797 124.451767 164.372009 118.281708 C 160.240036 109.615356 158.349518 106.714981 156.061325 105.531708 C 154.43222 104.68927 151.333221 104 149.174667 104 C 147.016098 104 143.803574 103.710716 142.035736 103.357147 C 139.420532 102.834106 138.898117 102.313286 139.232758 100.562714 C 139.458984 99.379349 140.451569 97.044144 141.438522 95.373367 C 142.425461 93.702599 144.182312 91.742729 145.342621 91.018097 C 146.50293 90.293472 150.488434 89.483368 154.19928 89.217857 C 158.273529 88.926346 162.088791 89.208351 163.830383 89.929741 C 165.819107 90.753494 167.976181 93.355865 170.778503 98.312187 C 173.013702 102.265488 178.304947 113.150002 182.536804 122.5 C 186.768661 131.850006 192.478622 145.062317 195.225616 151.860703 C 199.274521 161.881104 200.027878 164.643387 199.204636 166.450211 C 198.646103 167.676056 196.909073 169.166031 195.344559 169.761261 C 193.45076 170.481766 171.77713 170.953217 130.5 171.171753 Z M 99.969154 132 C 99.413986 132 94.329605 127.341713 88.670547 121.648254 C 83.011482 115.954796 76.041618 108.192291 73.181969 104.398254 C 70.322319 100.604218 65.655777 93 62.811878 87.5 C 59.967983 82 56.589012 74.195518 55.303055 70.156715 C 54.017094 66.117905 52.682793 58.838417 52.337936 53.980064 C 51.943977 48.429909 52.17152 42.796432 52.950134 38.823349 C 53.631699 35.345505 55.337467 30.067642 56.74073 27.094757 C 58.204224 23.994278 62.162781 18.767166 66.024544 14.835831 C 71.11113 9.657639 74.681282 7.077255 80.628487 4.28064 C 87.298103 1.144302 89.781479 0.518341 96.8927 0.181091 C 102.448227 -0.082397 107.465202 0.320969 111.73349 1.374268 C 115.279938 2.249451 120.728226 4.519165 123.84079 6.418106 C 126.953354 8.317032 131.506195 11.924805 133.958206 14.435349 C 138.416412 19 138.416412 19 134.208206 19 C 130 19 130 19 130 27.868439 C 130 36.736877 130 36.736877 121.260239 34.951004 C 114.641647 33.598572 112.066521 32.599014 110.650085 30.832565 C 109.621376 29.549652 106.978317 25.588821 104.776619 22.030716 C 100.773537 15.561447 100.773537 15.561447 98.920868 17.849396 C 97.901901 19.107758 95.659523 22.599457 93.937798 25.608719 C 92.216072 28.617981 89.838226 31.692459 88.653694 32.440903 C 87.469162 33.189346 83.192642 34.376404 79.150322 35.078827 C 75.02301 35.796005 71.579308 36.932739 71.295807 37.671524 C 71.018143 38.395111 73.058945 41.605103 75.830933 44.80484 C 78.602913 48.004585 81.398979 51.781555 82.044403 53.198112 C 82.940125 55.164009 82.942993 57.839569 82.056511 64.50106 C 81.41774 69.301125 81.074539 73.407875 81.293839 73.627174 C 81.513145 73.846474 84.349243 72.842972 87.596283 71.397163 C 90.84333 69.951355 95.226631 68.15168 97.33696 67.397888 C 100.953056 66.106247 101.586227 66.20575 108.33696 69.126526 C 112.276634 70.831062 116.360062 72.471367 117.411255 72.771645 C 119.225395 73.289864 119.291946 72.839539 118.721046 63.908798 C 118.308426 57.454155 118.493279 53.838989 119.309792 52.394714 C 119.964401 51.236801 122.524399 47.890701 124.998672 44.958923 C 128.270294 41.082352 129.585892 40.088226 129.821991 41.314209 C 130.097565 42.745117 131.496307 43 139.073318 43 C 148 43 148 43 148 50.840034 C 148 55.291298 147.172104 61.91713 146.084625 66.169098 C 145.031174 70.288055 143.046661 76.325279 141.674606 79.585152 C 140.302551 82.845024 137.363037 88.659447 135.142365 92.506096 C 132.921707 96.352745 128.537033 102.650002 125.398651 106.5 C 122.260269 110.349998 115.481865 117.662498 110.335533 122.75 C 105.189201 127.837502 100.52433 132 99.969154 132 Z M 162 37 C 136 37 136 37 136 31 C 136 25 136 25 149 25 L 162 25 L 162 12.5 C 162 0 162 0 168 0 C 174 0 174 0 174 12.5 L 174 25 L 186.5 25 C 199 25 199 25 199 31 C 199 37 199 37 186.5 37 L 174 37 L 174 50 C 174 63 174 63 168 63 C 162 63 162 63 162 50 L 162 37 Z"/>
</svg>
