<?xml version="1.0" encoding="UTF-8"?>
<!-- Generated by Pixelmator Pro 3.4.1 -->
<svg width="515" height="451" viewBox="0 0 515 451" xmlns="http://www.w3.org/2000/svg">
    <g id="g1">
        <path id="path1" stroke="none" d="M 292.789001 360.687988 L 280.72699 350.5 C 271.882996 361.031006 267.523987 373.406006 265.382996 384.625 L 280.882996 387.562988 C 282.679993 378.125 286.289001 368.375 292.789001 360.687988 Z"/>
        <path id="path2" stroke="none" d="M 334.64801 336.781006 L 325.351013 324.031006 C 321.070007 327.156006 315.867004 329.812012 309.476013 331.812012 C 304.334991 333.406006 299.695007 335.467987 295.537994 337.937012 L 303.615997 351.5 C 306.662994 349.687012 310.147003 348.109009 314.131989 346.875 C 322.070007 344.437988 328.89801 340.968994 334.64801 336.781006 Z"/>
        <path id="path3" stroke="none" d="M 344.242004 286.437988 C 343.835999 295.734985 341.210999 305.657013 335.351013 313.907013 L 348.242004 323 C 356.210999 311.687012 359.492004 298.812012 360.007996 287.093994 L 344.242004 286.437988 Z"/>
        <path id="path4" stroke="none" d="M 168.397995 394.656006 C 166.085007 382.467987 161.179001 371.937012 154.945007 363.031006 L 142.022995 372.078003 L 142.022995 372.093994 C 147.147995 379.407013 151.022995 387.782013 152.897995 397.593994 L 168.397995 394.656006 Z"/>
        <path id="path5" stroke="none" d="M 117.148003 330.203003 L 109.445 343.968994 C 117.241997 348.343994 125.585999 354.062988 132.835999 361.25 L 143.945007 350.031006 C 135.367004 341.562988 125.883003 335.093994 117.148003 330.203003 Z"/>
        <path id="path6" stroke="none" d="M 512.804993 447.843994 L 504.10199 428.718994 L 413.554993 229.25 L 287.289001 229.25 C 285.585999 232.25 284.039001 235.093994 282.242004 238.156006 C 277.382996 246.468994 272.882996 254 268.710999 260.812012 L 338.570007 260.812012 L 338.445007 260.937012 C 339.617004 262.062012 341.789001 266.156006 342.960999 271.531006 L 358.335999 268.031006 C 357.72699 265.467987 356.97699 263.092987 356.132996 260.812012 L 393.22699 260.812012 L 465.243011 419.453003 L 266.757996 419.453003 L 279.960999 417.406006 L 279.945007 417.281006 C 279.835999 416.437012 279.242004 411.937012 279.242004 405.562012 C 279.242004 404.748993 279.257996 403.92099 279.27301 403.062012 L 263.506989 402.703003 C 263.476013 403.687012 263.476013 404.625 263.476013 405.562012 C 263.476013 412.859009 264.131989 418.062012 264.320007 419.453003 L 169.414001 419.453003 C 169.664001 416.875 169.835999 414.343994 169.867004 411.875 L 154.085999 411.656006 C 154.054993 414.156006 153.852005 416.781006 153.554993 419.453003 L 48.757999 419.453003 L 87.476997 334.156006 C 89.790001 334.937012 92.742996 336.031006 96.165001 337.468994 L 102.336998 322.968994 C 99.181 321.625 96.399002 320.562988 94.024002 319.718994 L 120.774002 260.812988 L 159.617996 260.812988 C 155.462006 254 150.962006 246.468994 146.087006 238.157013 C 144.289993 235.093994 142.742996 232.251007 141.039993 229.251007 L 100.43 229.251007 L 1.195 447.843994 C 0.882 448.546997 0.945 449.343994 1.351 450 C 1.773 450.625 2.476 451 3.242 451 L 510.757996 451 C 511.523987 451 512.22699 450.625 512.648987 450 C 513.054993 449.343994 513.117004 448.546997 512.804993 447.843994 Z"/>
        <path id="path7" stroke="none" d="M 214.164001 310.656006 C 219.164001 310.656006 319.320007 164.25 319.320007 106.156006 C 319.320007 48.093994 272.242004 1 214.164001 1 C 156.070007 1 108.991997 48.093994 108.991997 106.156006 C 108.991997 164.25 209.164001 310.656006 214.164001 310.656006 Z M 173.945007 106.156006 C 173.945007 83.937012 191.960999 65.937012 214.164001 65.937012 C 236.382996 65.937012 254.397995 83.937012 254.397995 106.156006 C 254.397995 128.375 236.382004 146.390015 214.164001 146.390015 C 191.960999 146.390991 173.945007 128.375 173.945007 106.156006 Z"/>
    </g>
</svg>
