<?xml version="1.0" encoding="UTF-8"?>
<!-- Generated by Pixelmator Pro 3.4.1 -->
<svg width="200" height="172" viewBox="0 0 200 172" xmlns="http://www.w3.org/2000/svg">
    <path id="path1" fill-rule="evenodd" stroke="none" d="M 102.177063 171.657928 C 51.754677 171.744797 9.01907 171.460358 7.209044 171.025848 C 5.399018 170.591354 2.999354 169.404404 1.876457 168.388199 C 0.429156 167.0784 -0.044295 165.661331 0.250066 163.520279 C 0.478447 161.859116 3.914629 153.085419 7.886026 144.023148 C 11.857423 134.960892 18.555267 120.110886 22.770124 111.023148 C 26.984983 101.935417 31.65135 93.262497 33.139828 91.75 C 35.687889 89.16082 36.363953 89 44.700569 89 C 51.127228 89 54.169422 89.430367 55.795921 90.569611 C 57.028439 91.432899 59.192501 94.419777 60.604954 97.207123 C 62.661835 101.266182 62.906998 102.443657 61.836525 103.122192 C 61.101437 103.588142 56.674999 103.983154 52 104 C 47.325001 104.016846 42.982838 104.361237 42.35075 104.765312 C 41.718662 105.169388 36.58979 115.849998 30.95326 128.5 C 25.316729 141.149994 20.506222 152.448212 20.263243 153.607147 C 19.904682 155.317352 20.426949 155.835388 23.03573 156.357147 C 24.803579 156.710724 59.4375 157 100 157 C 140.5625 157 175.15625 156.71875 176.875 156.375 C 178.877991 155.974396 179.977997 155.16655 179.938736 154.125 C 179.905045 153.231247 175.036209 141.699997 169.119095 128.5 C 158.360733 104.5 158.360733 104.5 149.253174 103.989471 C 144.244019 103.708679 139.833801 103.167137 139.452713 102.786041 C 139.071609 102.404945 139.025894 101.032951 139.35112 99.737167 C 139.676346 98.441383 140.972946 95.85202 142.232452 93.983032 C 143.491959 92.114037 145.642426 90.273125 147.011246 89.892113 C 148.380051 89.511101 152.797119 89.154503 156.82692 89.099678 C 163.561966 89.008049 164.372467 89.222145 166.860168 91.75 C 168.348648 93.262497 173.015015 101.935417 177.229874 111.023148 C 181.444733 120.110886 188.153915 134.960892 192.13916 144.023148 C 196.225067 153.314285 199.410141 161.973221 199.442535 163.878113 C 199.486374 166.454926 198.830383 167.759537 196.677063 169.378113 C 193.854126 171.5 193.854126 171.5 102.177063 171.657928 Z M 100.050117 132 C 99.297501 132 93.43322 126.682335 87.018379 120.182968 C 80.603546 113.683594 72.99649 104.796097 70.113823 100.432968 C 67.231148 96.069832 63.131248 88.900002 61.00293 84.5 C 58.874611 80.099998 56.160542 73.574997 54.971668 70 C 53.701473 66.180458 52.579502 59.635841 52.250931 54.12957 C 51.938263 48.889755 52.177582 42.146881 52.793835 38.833145 C 53.399963 35.573853 55.019962 30.451859 56.393829 27.450943 C 57.7677 24.450012 61.278625 19.467514 64.195885 16.378723 C 67.113152 13.289932 71.300003 9.533157 73.5 8.030334 C 75.699997 6.527512 80.621552 4.057968 84.436775 2.54245 C 90.787697 0.019714 92.223457 -0.175446 101.436775 0.23175 C 108.667725 0.551331 113.13868 1.312759 117.322319 2.937164 C 120.52459 4.180511 125.91642 7.325531 129.304153 9.926071 C 132.691895 12.526611 137.376831 17.449951 139.715103 20.866821 C 142.053391 24.283707 144.975098 30.323975 146.207809 34.289658 C 147.835922 39.52739 148.427094 43.825439 148.368668 50 C 148.319 55.251228 147.450073 61.748772 146.095261 67 C 144.889114 71.675003 141.931824 79.550003 139.523499 84.5 C 137.115173 89.449997 132.758408 96.875 129.841797 101 C 126.925186 105.125 119.336784 113.787498 112.978691 120.25 C 106.62059 126.712502 100.802734 132 100.050117 132 Z M 82.33152 73.703026 C 83.233681 73.356834 87.46566 71.45488 91.735909 69.476456 C 96.006157 67.498039 100.400002 66.074478 101.5 66.312981 C 102.599998 66.551491 107.046829 68.394318 111.381836 70.40815 C 115.716843 72.421982 119.432983 73.900352 119.639915 73.69342 C 119.846855 73.486481 119.483856 68.78019 118.833252 63.234993 C 117.650345 53.152817 117.650345 53.152817 124.86058 45.154655 C 132.070816 37.156494 132.070816 37.156494 126.785408 36.077072 C 123.878433 35.483383 119.251663 34.585571 116.5037 34.081909 C 113.755737 33.578262 111.05574 32.455231 110.5037 31.586273 C 109.951668 30.717331 107.675659 26.804794 105.445915 22.891754 C 103.216164 18.978714 100.990501 15.777145 100.5 15.777145 C 100.009499 15.777145 97.783836 18.978714 95.554085 22.891754 C 93.324341 26.804794 91.048332 30.717331 90.4963 31.586273 C 89.94426 32.455231 87.244263 33.578262 84.4963 34.081909 C 81.748337 34.585571 77.121567 35.483383 74.214592 36.077072 C 68.929184 37.156494 68.929184 37.156494 76.099411 45.110268 C 83.26963 53.064041 83.26963 53.064041 82.59391 59.782021 C 82.222267 63.476913 81.64212 68.262306 81.304703 70.416237 C 80.778931 73.772568 80.925728 74.242477 82.33152 73.703026 Z"/>
</svg>
