<?xml version="1.0" encoding="UTF-8"?>
<!-- Generated by Pixelmator Pro 3.4.1 -->
<svg width="821" height="609" viewBox="0 0 821 609" xmlns="http://www.w3.org/2000/svg">
    <path id="path1" stroke="none" d="M 63.603333 483.688049 C 87.582275 440.33432 94.974152 427.747742 95.5 427.747742 C 96.025848 427.747742 103.417725 440.33432 111.926376 455.717896 L 127.396667 483.688049 L 157.448334 489.409363 C 173.976746 492.556091 188.457428 495.438782 189.627625 495.815338 C 191.509705 496.42099 189.689117 498.692596 173.851425 515.5 C 164.004318 525.950012 153.946625 536.78418 151.500992 539.575989 C 147.054367 544.651978 147.054367 544.651978 151.05777 576.462036 C 153.259644 593.957642 154.873566 608.459778 154.644257 608.689087 C 154.414948 608.918396 144.838684 604.729248 133.363663 599.379883 C 121.888657 594.030518 108.652985 587.887329 103.95108 585.728394 C 95.402161 581.80304 95.402161 581.80304 67.307327 594.892151 C 51.855179 602.091125 38.438126 608.278381 37.491653 608.641602 C 35.958275 609.22998 35.84182 608.768005 36.422676 604.401001 C 36.781204 601.705444 38.621498 587.160278 40.512215 572.078491 C 43.949875 544.656982 43.949875 544.656982 39.501137 539.578491 C 37.054329 536.785278 26.995682 525.950012 17.148582 515.5 C 1.310867 498.692596 -0.509712 496.42099 1.372383 495.815338 C 2.542572 495.438782 17.023247 492.556091 33.551666 489.409363 L 63.603333 483.688049 Z M 525 569.671692 C 318.68399 569.80365 255.226227 569.56427 251 568.638123 C 247.975006 567.97522 243.079346 566.1073 240.120728 564.487122 C 237.135864 562.8526 233.245483 559.582153 231.380554 557.139771 C 229.532074 554.718872 227.227722 550.22583 226.259827 547.155334 C 224.916809 542.894775 224.5 538.129639 224.5 527.036255 C 224.5 518.18396 224.99408 510.87442 225.76358 508.342651 C 226.458557 506.056122 228.483582 502.006134 230.26358 499.342651 C 232.04361 496.679199 235.679199 493.04361 238.342651 491.26358 C 241.006134 489.483582 245.056122 487.458557 247.342651 486.76358 C 250.648438 485.75882 306.915283 485.5 522.036255 485.5 C 777.483765 485.5 792.88385 485.598145 798.155334 487.259827 C 801.225891 488.227722 805.734863 490.544281 808.175293 492.407684 C 810.88147 494.473969 813.842773 498.104034 815.766174 501.712677 C 817.62384 505.198059 819.406616 510.576813 820.104248 514.80127 C 820.787781 518.940308 821.065857 526.337097 820.761841 532.293823 C 820.358826 540.19043 819.627075 544.128052 817.646545 549.057373 C 815.871399 553.475403 813.554993 556.941162 810.275208 560.08606 C 807.451599 562.793518 803.036316 565.660889 799.496277 567.08606 C 793.5 569.5 793.5 569.5 525 569.671692 Z M 63.603333 270.688049 C 87.582275 227.33429 94.974152 214.747742 95.5 214.747742 C 96.025848 214.747742 103.417725 227.33429 111.926376 242.717896 L 127.396667 270.688049 L 157.448334 276.409363 C 173.976746 279.556091 188.457428 282.438782 189.627625 282.815308 C 191.509705 283.420959 189.689117 285.692627 173.851425 302.5 C 164.004318 312.950012 153.946625 323.78421 151.500992 326.575989 C 147.054367 331.651978 147.054367 331.651978 151.05777 363.462067 C 153.259644 380.957611 154.873566 395.459778 154.644257 395.689087 C 154.414948 395.918396 144.838684 391.729248 133.363663 386.379883 C 121.888657 381.030518 108.652985 374.88736 103.95108 372.728424 C 95.402161 368.80307 95.402161 368.80307 67.307327 381.892151 C 51.855179 389.091125 38.438126 395.278381 37.491653 395.641571 C 35.958275 396.22998 35.84182 395.768005 36.422676 391.40097 C 36.781204 388.705444 38.621498 374.160309 40.512215 359.078461 C 43.949875 331.656952 43.949875 331.656952 39.501137 326.578461 C 37.054329 323.785309 26.995682 312.950012 17.148582 302.5 C 1.310867 285.692627 -0.509712 283.420959 1.372383 282.815308 C 2.542572 282.438782 17.023247 279.556091 33.551666 276.409363 L 63.603333 270.688049 Z M 521 356.858246 C 377.174988 356.802063 257.018433 356.390411 253.985413 355.94342 C 250.952362 355.496429 246.353516 354.223145 243.765717 353.113892 C 241.177887 352.004639 237.082916 349.274078 234.665741 347.04599 C 232.072327 344.655487 229.088104 340.434082 227.385437 336.747467 C 224.573853 330.659912 224.5 330.077637 224.5 314 C 224.5 297.922363 224.573853 297.340088 227.385437 291.252502 C 229.088104 287.565918 232.072327 283.344482 234.665741 280.953979 C 237.082916 278.725891 241.134064 276.01416 243.668274 274.927856 C 246.202515 273.841553 251.251373 272.522339 254.88797 271.996216 C 258.962036 271.406799 361.490356 271.039612 522 271.039612 C 688.238464 271.039612 784.972229 271.397034 789.332214 272.027405 C 793.089966 272.570679 798.47052 274.007202 801.289001 275.219666 C 804.107483 276.432129 807.912659 278.740479 809.744995 280.349243 C 811.577271 281.958008 814.164673 285.131165 815.49469 287.400696 C 816.824707 289.670227 818.60083 294.445984 819.44165 298.01355 C 820.282471 301.581116 820.970459 308.775024 820.970459 314 C 820.970459 319.225006 820.282471 326.418915 819.44165 329.986481 C 818.60083 333.554016 816.824707 338.329803 815.49469 340.599304 C 814.164673 342.868835 811.577271 346.041962 809.744995 347.650757 C 807.912659 349.259552 804.107483 351.567841 801.289001 352.780334 C 798.47052 353.992828 793.089966 355.429352 789.332214 355.972626 C 784.957092 356.605133 688.455383 356.923645 521 356.858246 Z M 63.603333 56.688049 C 87.582275 13.33429 94.974152 0.747742 95.5 0.747742 C 96.025848 0.747742 103.417725 13.33429 111.926376 28.717896 L 127.396667 56.688049 L 157.448334 62.409363 C 173.976746 65.556091 188.457428 68.438782 189.627625 68.815308 C 191.509705 69.420959 189.689117 71.692627 173.851425 88.5 C 164.004318 98.950012 153.946625 109.78418 151.500992 112.575989 C 147.054367 117.651978 147.054367 117.651978 151.05777 149.462097 C 153.259644 166.957642 154.873566 181.459778 154.644257 181.689087 C 154.414948 181.918396 144.838684 177.729248 133.363663 172.379883 C 121.888657 167.030518 108.652985 160.88739 103.95108 158.728394 C 95.402161 154.80304 95.402161 154.80304 67.307327 167.892151 C 51.855179 175.091125 38.438126 181.278381 37.491653 181.641602 C 35.958275 182.22998 35.84182 181.768005 36.422676 177.40094 C 36.781204 174.705444 38.621498 160.160339 40.512215 145.078491 C 43.949875 117.656921 43.949875 117.656921 39.501137 112.578491 C 37.054329 109.785339 26.995682 98.950012 17.148582 88.5 C 1.310867 71.692627 -0.509712 69.420959 1.372383 68.815308 C 2.542572 68.438782 17.023247 65.556091 33.551666 62.409363 L 63.603333 56.688049 Z M 524 142.665222 C 304.206421 142.799438 252.614471 142.585815 248.77594 141.525452 C 246.177734 140.807678 242.062653 139.054688 239.631348 137.629822 C 237.200043 136.205017 234.016846 133.6203 232.557587 131.886108 C 231.098328 130.151855 229.061768 127.081238 228.031891 125.062561 C 227.002014 123.043823 225.611176 118.71637 224.941162 115.446045 C 224.177643 111.719543 223.903046 104.834045 224.205475 97 C 224.566742 87.642273 225.203064 83.187622 226.736847 79.279236 C 227.863678 76.407837 230.163361 72.318909 231.84729 70.19281 C 233.531189 68.066711 237.60495 64.890198 240.900116 63.133911 C 245.008575 60.944153 249.343842 59.607971 254.695648 58.88208 C 260.075928 58.152283 344.966187 57.928528 528 58.161743 C 793.5 58.5 793.5 58.5 799.496277 60.914001 C 803.036316 62.339172 807.451599 65.206482 810.275208 67.914001 C 813.554993 71.058838 815.871399 74.524597 817.646545 78.942627 C 819.627075 83.871948 820.358826 87.809509 820.761841 95.706238 C 821.065857 101.662903 820.787781 109.059753 820.104248 113.198792 C 819.410706 117.398438 817.625488 122.798889 815.796326 126.230713 C 814.078369 129.453918 810.933289 133.468811 808.80719 135.15271 C 806.681091 136.836609 802.592163 139.17865 799.720764 140.357178 C 794.5 142.5 794.5 142.5 524 142.665222 Z"/>
</svg>
